#!OML:ASF F:\VICON\USERDATA\INSTALL\rory3\rory3.ASF
:FULLY-SPECIFIED
:DEGREES
1978
root 2.49291 10.5079 -4.08461 369.913 35.1127 356.675
lowerback 37.1846 0.8428 -0.360997
upperback 12.6898 1.52317 0.611413
thorax -4.34676 0.919531 0.280234
lowerneck -14.3084 -1.58126 -11.4532
upperneck 27.0994 0.184213 3.15205
head 11.1777 -0.615436 3.14497
rclavicle 2.04251e-014 1.56543e-015
rhumerus -18.3819 7.98965 -76.4906
rradius 117.622
rwrist 47.5882
rhand -30.5085 11.1045
rfingers 7.12502
rthumb -3.8085 -378.841
lclavicle 2.04251e-014 1.56543e-015
lhumerus -13.9931 -17.2706 74.6584
lradius 114.264
lwrist -36.343
lhand -38.3212 37.3386
lfingers 7.12502
lthumb -11.3491 67.0115
rfemur -100.09 -22.7694 30.068
rtibia 112.615
rfoot -19.9609 2.88529
rtoes -3.53068
lfemur -102.409 20.46 -18.7923
ltibia 104.478
lfoot -11.861 -17.1489
ltoes -9.98364
1979
root 2.52534 10.5224 -4.04373 370.649 35.1424 356.766
lowerback 37.261 0.858142 -0.563763
upperback 12.7427 1.48977 0.794089
thorax -4.32281 0.891062 0.589065
lowerneck -14.2422 -1.58119 -11.8185
upperneck 26.8631 0.289703 3.06114
head 11.0719 -0.607639 3.18053
rclavicle -2.78299e-015 -3.15819e-014
rhumerus -18.4599 8.29231 -76.0168
rradius 118.162
rwrist 47.6188
rhand -30.8547 11.3002
rfingers 7.12502
rthumb -4.14279 -378.639
lclavicle -2.78299e-015 -3.15819e-014
lhumerus -14.3522 -16.7798 74.8257
lradius 114.763
lwrist -36.3339
lhand -38.4123 37.6513
lfingers 7.12502
lthumb -11.4369 67.3194
rfemur -100.599 -22.6618 30.1274
rtibia 112.593
rfoot -20.2227 2.79
rtoes -3.2482
lfemur -102.906 20.3071 -18.9199
ltibia 104.522
lfoot -12.066 -17.0046
ltoes -9.69458
1980
root 2.55409 10.543 -4.00324 371.339 35.324 356.926
lowerback 37.5124 0.882822 -0.506532
upperback 12.7372 1.54573 0.824333
thorax -4.4124 0.91964 0.567566
lowerneck -14.0908 -1.67724 -11.6968
upperneck 26.715 0.112248 3.02061
head 11.0005 -0.674353 3.1176
rclavicle -1.99631e-014 6.91196e-014
rhumerus -18.8113 8.15469 -75.7614
rradius 118.783
rwrist 47.454
rhand -31.2158 11.1364
rfingers 7.12502
rthumb -4.49151 -378.796
lclavicle -1.99631e-014 6.91196e-014
lhumerus -14.573 -16.8319 74.8159
lradius 115.202
lwrist -36.1247
lhand -38.8529 38.1869
lfingers 7.12502
lthumb -11.8618 67.8309
rfemur -101.018 -22.7448 30.1218
rtibia 112.604
rfoot -20.4655 2.76671
rtoes -2.98335
lfemur -103.25 19.9942 -19.0354
ltibia 104.508
lfoot -12.1932 -16.8978
ltoes -9.84231
1981
root 2.58048 10.5619 -3.96458 371.917 35.5614 356.973
lowerback 38.0793 0.74223 -0.270692
upperback 12.5746 1.45027 0.743065
thorax -4.76794 0.88284 0.383138
lowerneck -13.939 -1.66665 -11.5397
upperneck 26.6524 0.0684258 3.00993
head 10.9485 -0.67755 3.07941
rclavicle 4.15895e-014 -7.60429e-015
rhumerus -19.2452 8.36467 -75.7008
rradius 119.377
rwrist 47.0777
rhand -31.6612 10.5208
rfingers 7.12502
rthumb -4.92159 -379.402
lclavicle 4.15895e-014 -7.60429e-015
lhumerus -15.0244 -16.6952 74.6579
lradius 115.734
lwrist -35.9697
lhand -39.1321 38.8265
lfingers 7.12502
lthumb -12.131 68.4548
rfemur -101.356 -22.8372 30.2266
rtibia 112.618
rfoot -20.6297 2.69799
rtoes -2.76463
lfemur -103.612 19.6971 -19.0872
ltibia 104.463
lfoot -12.302 -16.7965
ltoes -10.2459
1982
root 2.61179 10.5792 -3.92309 372.533 35.7443 357.056
lowerback 38.313 0.693252 -0.358569
upperback 12.6185 1.38379 0.941187
thorax -4.80145 0.843104 0.658793
lowerneck -13.9749 -1.67483 -11.8862
upperneck 26.5873 0.148254 3.01331
head 10.929 -0.673007 3.14786
rclavicle -2.54196e-014 -3.11222e-014
rhumerus -19.3131 8.85938 -75.2274
rradius 119.901
rwrist 46.9931
rhand -32.072 10.0996
rfingers 7.12502
rthumb -5.31825 -379.814
lclavicle -2.54196e-014 -3.11222e-014
lhumerus -15.3514 -16.2846 74.844
lradius 116.199
lwrist -35.6653
lhand -39.5025 39.2551
lfingers 7.12502
lthumb -12.4881 68.862
rfemur -101.744 -22.9496 30.3274
rtibia 112.661
rfoot -20.785 2.7516
rtoes -2.54987
lfemur -103.982 19.4359 -19.2028
ltibia 104.419
lfoot -12.4651 -16.6571
ltoes -10.4831
1983
root 2.64642 10.6051 -3.8836 373.306 36.0154 357.386
lowerback 38.5279 0.662501 -0.451803
upperback 12.614 1.33175 1.06607
thorax -4.87947 0.813719 0.85469
lowerneck -13.9288 -1.733 -11.956
upperneck 26.6431 0.0866057 3.00226
head 10.9479 -0.709739 3.14871
rclavicle -5.0541e-014 1.75924e-014
rhumerus -19.7462 9.07516 -74.9949
rradius 120.588
rwrist 47.3261
rhand -32.278 10.1041
rfingers 7.12502
rthumb -5.51717 -379.804
lclavicle -5.0541e-014 1.75924e-014
lhumerus -15.6201 -16.1989 74.9472
lradius 116.564
lwrist -35.2024
lhand -40.0326 39.943
lfingers 7.12502
lthumb -12.9992 69.518
rfemur -102.165 -23.297 30.2513
rtibia 112.669
rfoot -20.9996 2.97813
rtoes -2.21067
lfemur -104.272 18.9825 -19.4936
ltibia 104.301
lfoot -12.6516 -16.4847
ltoes -10.7343
1984
root 2.68128 10.6355 -3.84905 374.06 36.2217 357.687
lowerback 38.8687 0.524971 -0.26519
upperback 12.5359 1.22295 0.919358
thorax -5.06514 0.773416 0.638095
lowerneck -13.8448 -1.79252 -11.7465
upperneck 26.7299 -0.0873853 3.11106
head 10.9744 -0.756951 3.13264
rclavicle -6.79844e-014 -1.39149e-015
rhumerus -20.3715 9.09563 -75.2317
rradius 121.375
rwrist 47.7774
rhand -32.3524 10.2323
rfingers 7.12502
rthumb -5.58896 -379.674
lclavicle -6.79844e-014 -1.39149e-015
lhumerus -15.8372 -16.2372 74.6729
lradius 116.904
lwrist -34.8524
lhand -40.268 38.6721
lfingers 7.12502
lthumb -13.2262 68.2325
rfemur -102.51 -23.5468 30.1485
rtibia 112.625
rfoot -21.2076 3.08025
rtoes -2.55664
lfemur -104.515 18.5803 -19.7568
ltibia 104.158
lfoot -12.8323 -16.3071
ltoes -10.6973
1985
root 2.69235 10.7082 -3.82204 374.19 36.4225 357.392
lowerback 39.3024 0.426571 -0.25575
upperback 12.5535 1.147 1.26594
thorax -5.18982 0.725493 1.02263
lowerneck -13.7105 -1.72618 -12.3173
upperneck 26.7796 0.101227 3.23632
head 10.9561 -0.715097 3.2997
rclavicle -3.04141e-014 -8.94531e-016
rhumerus -20.3503 9.77127 -74.5527
rradius 121.871
rwrist 47.5306
rhand -32.3324 10.3812
rfingers 7.12502
rthumb -5.56965 -379.526
lclavicle -3.04141e-014 -8.94531e-016
lhumerus -16.3445 -15.6961 74.9776
lradius 117.193
lwrist -34.3944
lhand -40.5814 34.5534
lfingers 7.12502
lthumb -13.5282 64.094
rfemur -102.003 -23.3388 30.3004
rtibia 112.223
rfoot -21.5733 2.84096
rtoes -3.03591
lfemur -104.211 18.4504 -19.4308
ltibia 103.732
lfoot -12.9747 -16.3134
ltoes -10.3055
1986
root 2.71406 10.7476 -3.77216 374.158 36.6013 356.95
lowerback 39.8929 0.161419 0.489977
upperback 12.5702 1.08075 0.941479
thorax -5.33412 0.724643 0.314236
lowerneck -13.7493 -1.71624 -11.8682
upperneck 26.844 -0.0769752 3.52911
head 10.9924 -0.71986 3.31079
rclavicle -2.35063e-014 5.98093e-014
rhumerus -20.1773 9.63747 -74.4339
rradius 122.058
rwrist 47.0125
rhand -32.4835 10.1346
rfingers 7.12502
rthumb -5.7156 -379.768
lclavicle -2.35063e-014 5.98093e-014
lhumerus -16.4201 -16.1133 74.1161
lradius 117.461
lwrist -33.5822
lhand -41.7012 35.9579
lfingers 7.12502
lthumb -14.6073 65.4235
rfemur -101.613 -23.1361 30.552
rtibia 112.031
rfoot -21.9787 2.65831
rtoes -3.65199
lfemur -104.113 18.5185 -18.9909
ltibia 103.558
lfoot -13.1043 -16.4468
ltoes -9.95673
